<svg width="166" height="167" viewBox="0 0 166 167" fill="none" xmlns="http://www.w3.org/2000/svg">
<path d="M89.5958 1.069L89.6061 140.621L155.1 72.9973L155.455 72.6302L155.81 72.998L164.339 81.8481L164.68 82.2006L164.338 82.5524L83.4671 165.91L83.1133 166.275L82.7594 165.91C72.4218 155.226 57.3705 139.739 42.3308 124.238L41.9851 123.882L42.0105 123.856C27.0742 108.462 12.1476 93.1045 1.88836 82.5024L1.54959 82.1519L1.8863 81.7994L10.3151 72.9758L10.6689 72.6045L11.0262 72.9737C20.7152 82.9992 32.0132 94.6307 43.6481 106.604L43.6474 106.603C54.2225 117.476 65.0597 128.641 75.2359 139.161L75.2366 139.161L76.6424 140.617L76.6321 1.06761V0.564236H77.1286L89.0993 0.565627H89.5958V1.069Z" fill="black" stroke="black"/>
</svg>
