<svg width="146" height="149" viewBox="0 0 146 149" fill="none" xmlns="http://www.w3.org/2000/svg">
<path d="M129.62 98.3931C139.152 94.6637 145.909 85.329 145.909 74.403C145.909 63.477 139.301 54.3516 129.939 50.5409C139.303 46.7302 145.909 37.4829 145.909 26.6789C145.909 12.4706 134.485 0.953125 120.391 0.953125C106.298 0.953125 94.8732 12.4706 94.8732 26.6789C94.8732 37.4829 101.482 46.7302 110.844 50.5409C101.479 54.3516 94.8732 63.5989 94.8732 74.403C94.8732 85.207 101.653 94.6921 111.209 98.4093C104.544 101.003 99.2297 106.334 96.623 113.036C92.9056 103.468 83.6665 96.6899 72.8549 96.6899C62.0433 96.6899 53.1206 103.238 49.2822 112.551C46.6131 106.075 41.3958 100.938 34.8923 98.4073C44.4479 94.6901 51.2276 85.3432 51.2276 74.4009C51.2276 63.4587 44.6193 54.3496 35.2572 50.5389C44.6213 46.7282 51.2276 37.4809 51.2276 26.6768C51.2296 12.4726 39.8052 0.955157 25.7116 0.955157C11.618 0.955157 0.195548 12.4726 0.195548 26.6809C0.195548 37.485 6.80387 46.7323 16.166 50.5429C6.80387 54.3536 0.195548 63.6009 0.195548 74.405C0.195548 85.2091 6.92886 94.6311 16.4321 98.3748C6.82605 102.066 0 111.437 0 122.42C0 136.628 11.4245 148.145 25.518 148.145C25.5503 148.145 25.5826 148.145 25.6148 148.145C25.6471 148.145 25.6793 148.145 25.7116 148.145C36.3377 148.145 45.4458 141.597 49.2842 132.285C53.1226 141.597 62.2307 148.145 72.8569 148.145C83.483 148.145 92.9056 141.37 96.6251 131.801C100.342 141.37 109.582 148.145 120.393 148.145C120.409 148.145 120.423 148.145 120.44 148.145C120.456 148.145 120.47 148.145 120.486 148.145C134.58 148.145 146.004 136.628 146.004 122.42C146.004 111.459 139.202 102.1 129.624 98.3951L129.62 98.3931Z" fill="#F8F8F2"/>
<path d="M120.392 1.45312C134.205 1.45332 145.409 12.7429 145.409 26.6787C145.409 37.2744 138.931 46.3422 129.75 50.0781L128.612 50.541L129.75 51.0039C138.93 54.7404 145.409 63.6871 145.409 74.4033C145.409 85.1184 138.783 94.2715 129.438 97.9277L128.393 98.3369L129.396 98.8398L129.422 98.8525L129.444 98.8613C138.834 102.494 145.504 111.671 145.504 122.42C145.504 136.356 134.3 147.645 120.486 147.646H120.394L119.897 147.641C109.515 147.437 100.68 140.858 97.0908 131.62L96.625 130.421L96.1592 131.62C92.512 141.003 83.2696 147.646 72.8564 147.646C62.442 147.645 53.5107 141.228 49.7461 132.095L49.2842 130.973L48.8223 132.095C45.0576 141.228 36.1264 147.645 25.7119 147.646H25.5176C11.7042 147.645 0.500098 136.356 0.5 122.42C0.5 111.649 7.19396 102.46 16.6113 98.8418L17.8115 98.3809L16.6152 97.9092C7.29971 94.2394 0.695427 84.9999 0.695312 74.4053C0.695312 63.8097 7.17594 54.7418 16.3545 51.0059L17.4922 50.543L16.3545 50.0801C7.17594 46.3441 0.695312 37.2763 0.695312 26.6807C0.695435 12.7447 11.8984 1.45508 25.7119 1.45508C39.5255 1.45526 50.7295 12.7451 50.7275 26.6768L50.7227 27.1729C50.5241 37.5548 44.1053 46.3986 35.0684 50.0762L33.9307 50.5391L35.0684 51.002C44.2484 54.7385 50.7275 63.6691 50.7275 74.4014C50.7274 85.1323 44.0789 94.2972 34.7109 97.9414L33.5137 98.4072L34.7109 98.873C41.086 101.353 46.2028 106.391 48.8203 112.741L49.2822 113.862L49.7441 112.741C53.5096 103.606 62.2566 97.1896 72.8545 97.1895C83.451 97.1895 92.5112 103.833 96.1572 113.218L96.623 114.416L97.0889 113.218C99.6451 106.645 104.856 101.417 111.39 98.875L112.588 98.4092L111.39 97.9434C102.023 94.2997 95.3732 84.9976 95.373 74.4033C95.373 63.8076 101.852 54.7399 111.032 51.0039L112.17 50.541L111.032 50.0781C101.854 46.3422 95.373 37.2743 95.373 26.6787C95.3731 12.7428 106.578 1.45312 120.392 1.45312Z" stroke="black" stroke-opacity="0.1"/>
</svg>
