<svg width="74" height="74" viewBox="0 0 74 74" fill="none" xmlns="http://www.w3.org/2000/svg">
<g id="Layer_1" clip-path="url(#clip0_5014_2845)">
<path id="Vector" d="M0 12.9801C0 12.9719 0 12.9647 0 12.9566C0 12.9484 0 12.9412 0 12.9331C0 5.78975 5.79047 -0.000732422 12.9338 -0.000732422C18.4443 -0.000732422 23.1497 3.44678 25.0124 8.3013C26.8863 3.47233 31.5794 0.0472917 37.0725 0.0472917C42.5657 0.0472917 47.1382 3.38548 49.0602 8.1184C50.9699 3.35993 55.6262 0.000289367 61.0662 0.000289367C68.2095 0.000289367 74 5.79077 74 12.9341C74 12.9423 74 12.9494 74 12.9576C74 12.9658 74 12.9729 74 12.9811C74 18.4599 70.5934 23.1428 65.7828 25.028C70.5934 26.9111 74 31.594 74 37.0728C74 42.5517 70.7078 47.0751 66.026 49.0206C70.7078 50.9661 74 55.5825 74 60.9684C74 60.9847 74 61.0011 74 61.0174C74 61.0338 74 61.0501 74 61.0665C74 68.2098 68.2095 74.0003 61.0662 74.0003C55.615 74.0003 50.9525 70.6284 49.0489 65.8556C47.1208 70.5753 42.485 73.9012 37.0725 73.9012C31.6601 73.9012 26.9037 70.4884 25.0216 65.6717C23.166 70.5405 18.4535 74.0003 12.9328 74.0003C5.78945 74.0003 -0.00102234 68.2098 -0.00102234 61.0665C-0.00102234 61.0501 -0.00102234 61.0338 -0.00102234 61.0174C-0.00102234 61.0011 -0.00102234 60.9847 -0.00102234 60.9684C-0.00102234 55.5825 3.29118 50.9661 7.97301 49.0206C3.29118 47.0751 -0.00102234 42.4587 -0.00102234 37.0728C-0.00102234 31.687 3.40562 26.9111 8.2162 25.0259C3.40562 23.1418 -0.00102234 18.4589 -0.00102234 12.9791L0 12.9801ZM37.0725 48.0346C42.5044 48.0346 47.1535 51.384 49.0694 56.1292C50.366 52.9187 52.9123 50.3479 56.1075 49.0206C51.4256 47.0751 48.1334 42.4587 48.1334 37.0728C48.1334 31.687 51.5401 26.9111 56.3517 25.0259C53.0431 23.7293 50.3997 21.1094 49.0704 17.8182C47.1545 22.5645 42.5054 25.9129 37.0736 25.9129C31.6417 25.9129 26.873 22.4766 25.0042 17.6333C23.7004 21.0113 21.0202 23.7048 17.6504 25.0259C22.461 26.9101 25.8686 31.593 25.8686 37.0728C25.8686 42.5527 22.5764 47.0751 17.8946 49.0206C21.15 50.3735 23.7331 53.0179 25.0052 56.3141C26.8741 51.4709 31.5733 48.0346 37.0746 48.0346H37.0725Z" fill="#FFE600"/>
</g>
<defs>
<clipPath id="clip0_5014_2845">
<rect width="74" height="74" fill="white" transform="matrix(-1 0 0 1 74 0)"/>
</clipPath>
</defs>
</svg>
