<svg width="169" height="23" viewBox="0 0 169 23" fill="none" xmlns="http://www.w3.org/2000/svg">
<g id="Layer_1" clip-path="url(#clip0_6291_351)">
<g id="Group">
<path id="Vector" d="M44.8877 22.5167V0H53.7719C53.9909 0 54.2502 0.0072132 54.5527 0.0230822C54.8552 0.0389513 55.1462 0.072132 55.4271 0.124067C56.6445 0.31161 57.6673 0.731418 58.4956 1.38349C59.3225 2.03556 59.9449 2.85354 60.3612 3.83886C60.7775 4.82419 60.9864 5.91049 60.9864 7.09923C60.9864 8.28796 60.7761 9.39014 60.354 10.3755C59.9319 11.3608 59.3081 12.1759 58.4798 12.8222C57.6529 13.4685 56.6344 13.8854 55.4271 14.0729C55.1462 14.1148 54.8552 14.1465 54.5527 14.1667C54.2502 14.1884 53.9909 14.1985 53.7719 14.1985H47.6666V22.5167H44.8877ZM47.6666 11.5555H53.6783C53.8756 11.5555 54.1018 11.5454 54.3568 11.5238C54.6118 11.5036 54.8538 11.4661 55.0828 11.4142C55.8017 11.2483 56.3837 10.9424 56.8317 10.4995C57.2798 10.0566 57.6097 9.53585 57.8229 8.93571C58.0361 8.33701 58.1427 7.72389 58.1427 7.09779C58.1427 6.47168 58.0361 5.86 57.8229 5.25986C57.6097 4.66117 57.2783 4.13893 56.8317 3.69604C56.3837 3.25315 55.8017 2.94876 55.0828 2.78141C54.8538 2.72947 54.6118 2.69341 54.3568 2.67177C54.1018 2.65157 53.8756 2.64003 53.6783 2.64003H47.6666V11.5527V11.5555Z" fill="white"/>
<path id="Vector_2" d="M69.1676 22.9859C67.4921 22.9859 66.0472 22.605 64.8342 21.8447C63.6212 21.0845 62.6877 20.0342 62.0308 18.694C61.3753 17.3553 61.0469 15.8087 61.0469 14.0574C61.0469 12.306 61.3797 10.7451 62.0467 9.40487C62.7122 8.0661 63.6544 7.02307 64.8731 6.27723C66.0904 5.53138 67.5224 5.15918 69.1676 5.15918C70.8127 5.15918 72.3066 5.54004 73.5239 6.30031C74.7412 7.06202 75.6762 8.10938 76.3274 9.44382C76.9771 10.7783 77.3026 12.3161 77.3026 14.0559C77.3026 15.7958 76.9742 17.3682 76.3187 18.7084C75.6632 20.0487 74.7254 21.096 73.5081 21.852C72.2908 22.6079 70.843 22.9859 69.1676 22.9859ZM69.1676 20.343C70.9064 20.343 72.2043 19.7587 73.0629 18.5916C73.9215 17.4245 74.3508 15.9126 74.3508 14.0574C74.3508 12.2021 73.9187 10.6441 73.0543 9.5073C72.1899 8.3705 70.8948 7.80354 69.1661 7.80354C67.9891 7.80354 67.0211 8.06898 66.2619 8.60132C65.5012 9.13365 64.9351 9.86796 64.5605 10.8057C64.1859 11.7434 63.9987 12.8283 63.9987 14.0574C63.9987 15.9545 64.4352 17.4764 65.3096 18.6233C66.1841 19.7702 67.4691 20.343 69.1661 20.343H69.1676Z" fill="white"/>
<path id="Vector_3" d="M85.3399 22.97C83.3303 22.97 81.6837 22.53 80.3987 21.6485C79.1122 20.7671 78.3242 19.5351 78.0332 17.9511L80.8755 17.4981C81.1046 18.4156 81.6304 19.1427 82.453 19.6793C83.2756 20.216 84.2955 20.4843 85.5128 20.4843C86.6581 20.4843 87.5614 20.2449 88.2226 19.7645C88.8838 19.2855 89.2137 18.6334 89.2137 17.8097C89.2137 17.3408 89.1042 16.9571 88.8853 16.6599C88.6663 16.3627 88.2168 16.0843 87.534 15.8232C86.8526 15.5621 85.824 15.2447 84.4497 14.8696C82.9615 14.4729 81.7903 14.0646 80.936 13.6419C80.0817 13.2192 79.4738 12.7273 79.1093 12.1646C78.7449 11.602 78.5633 10.9139 78.5633 10.1002C78.5633 9.11057 78.8342 8.24499 79.3758 7.50491C79.9175 6.76484 80.6738 6.18922 81.6477 5.77663C82.6215 5.36548 83.7524 5.15918 85.0432 5.15918C86.334 5.15918 87.4692 5.36259 88.479 5.76942C89.4889 6.17624 90.3028 6.75185 90.9223 7.4977C91.5417 8.24354 91.9091 9.11057 92.0229 10.1017L89.1806 10.6181C89.0452 9.72225 88.6087 9.00958 87.8696 8.48446C87.1306 7.9579 86.1885 7.67947 85.0432 7.64773C83.9498 7.61599 83.0623 7.81508 82.3809 8.2421C81.6995 8.66912 81.3581 9.24329 81.3581 9.96173C81.3581 10.3786 81.4849 10.7307 81.7413 11.0177C81.9963 11.3048 82.4703 11.5789 83.1618 11.8386C83.8532 12.0997 84.8617 12.3969 86.1827 12.7302C87.6708 13.1052 88.8449 13.5149 89.7035 13.9578C90.5621 14.4007 91.1744 14.9215 91.5389 15.5217C91.9033 16.1218 92.0848 16.859 92.0848 17.7347C92.0848 19.3605 91.4856 20.6401 90.2899 21.5735C89.0927 22.5069 87.4432 22.9729 85.3399 22.9729V22.97Z" fill="white"/>
<path id="Vector_4" d="M92.4893 7.92709V5.62896H103.779V7.92709H92.4893ZM103.779 22.5165C102.779 22.7242 101.794 22.8108 100.82 22.7747C99.8464 22.7387 98.9777 22.5396 98.2128 22.1804C97.4478 21.8211 96.873 21.2556 96.4869 20.4838C96.1542 19.8173 95.9741 19.1422 95.9481 18.4584C95.9222 17.776 95.9092 17.0013 95.9092 16.1357V0.9375H98.6882V16.0116C98.6882 16.6998 98.6954 17.2884 98.7112 17.7789C98.7271 18.2694 98.8337 18.6906 99.031 19.0455C99.4056 19.7135 100.002 20.1044 100.819 20.2184C101.636 20.3338 102.622 20.302 103.778 20.1246V22.5165H103.779Z" fill="white"/>
<path id="Vector_5" d="M108.624 22.5314V0.0146484H111.403V19.8884H121.833V22.5314H108.623H108.624Z" fill="white"/>
<path id="Vector_6" d="M128.112 22.9996C126.852 22.9996 125.798 22.7673 124.949 22.3042C124.101 21.8412 123.461 21.228 123.029 20.4663C122.597 19.706 122.381 18.8708 122.381 17.9648C122.381 17.0588 122.548 16.313 122.881 15.6667C123.214 15.0204 123.69 14.4779 124.31 14.0408C124.929 13.6037 125.665 13.2589 126.52 13.0093C127.321 12.79 128.217 12.601 129.205 12.438C130.193 12.2765 131.199 12.1279 132.219 11.9923C133.239 11.8566 134.197 11.7268 135.091 11.6013L134.092 12.1798C134.112 10.6895 133.811 9.5816 133.185 8.8574C132.56 8.13319 131.478 7.77109 129.937 7.77109C128.917 7.77109 128.024 8.00624 127.259 8.4751C126.494 8.94396 125.955 9.69413 125.642 10.7271L123.003 9.92928C123.409 8.44913 124.195 7.28636 125.361 6.44242C126.527 5.59847 128.063 5.17578 129.967 5.17578C131.497 5.17578 132.811 5.44988 133.91 5.99664C135.008 6.5434 135.797 7.37004 136.275 8.4751C136.515 8.99589 136.666 9.56141 136.728 10.1716C136.79 10.7819 136.821 11.4195 136.821 12.0875V22.5322H134.354V18.4827L134.931 18.8578C134.296 20.2341 133.406 21.2684 132.262 21.9623C131.117 22.6548 129.732 23.0025 128.109 23.0025L128.112 22.9996ZM128.532 20.6697C129.532 20.6697 130.398 20.4894 131.133 20.1302C131.866 19.771 132.456 19.2963 132.904 18.7077C133.352 18.1191 133.643 17.4757 133.779 16.776C133.924 16.2553 134.008 15.6768 134.028 15.0406C134.048 14.4043 134.06 13.9095 134.06 13.5546L135.028 13.9773C134.122 14.1129 133.23 14.2384 132.35 14.3524C131.47 14.4678 130.643 14.5876 129.868 14.7116C129.093 14.8371 128.392 14.9886 127.767 15.1646C127.309 15.3103 126.88 15.5008 126.479 15.7359C126.079 15.9711 125.756 16.2682 125.511 16.6275C125.266 16.9867 125.144 17.4281 125.144 17.9489C125.144 18.4077 125.261 18.8462 125.495 19.2617C125.73 19.6786 126.093 20.0177 126.589 20.2788C127.083 20.5399 127.731 20.6697 128.532 20.6697Z" fill="white"/>
<path id="Vector_7" d="M138.9 22.5314V0.0146484H141.695V10.1001H141.383V22.5314H138.9ZM146.661 23.0002C145.079 23.0002 143.747 22.6064 142.663 21.8201C141.58 21.0325 140.76 19.9678 140.204 18.6218C139.647 17.2773 139.369 15.7596 139.369 14.0717C139.369 12.3838 139.647 10.8532 140.204 9.51299C140.76 8.17422 141.583 7.11532 142.672 6.33918C143.76 5.56304 145.095 5.17497 146.677 5.17497C148.259 5.17497 149.584 5.56304 150.713 6.33918C151.843 7.11532 152.71 8.1771 153.314 9.52164C153.917 10.8662 154.22 12.3838 154.22 14.0717C154.22 15.7596 153.917 17.2802 153.314 18.6305C152.71 19.9808 151.843 21.0469 150.713 21.8288C149.584 22.6107 148.233 23.0017 146.661 23.0017V23.0002ZM146.318 20.4511C147.422 20.4511 148.341 20.1698 149.074 19.6071C149.807 19.0445 150.358 18.2814 150.721 17.3162C151.085 16.3525 151.267 15.2706 151.267 14.0717C151.267 12.8729 151.085 11.8097 150.721 10.8503C150.356 9.89096 149.804 9.13069 149.065 8.56806C148.326 8.00543 147.384 7.72411 146.239 7.72411C145.094 7.72411 144.241 7.99244 143.522 8.52911C142.803 9.06577 142.267 9.8145 141.914 10.7724C141.56 11.7318 141.383 12.8311 141.383 14.0717C141.383 15.3124 141.557 16.3987 141.905 17.3638C142.254 18.3275 142.793 19.0835 143.522 19.6317C144.251 20.1784 145.181 20.4525 146.317 20.4525L146.318 20.4511Z" fill="white"/>
<path id="Vector_8" d="M162.255 22.9837C160.245 22.9837 158.599 22.5437 157.314 21.6622C156.027 20.7808 155.239 19.5488 154.948 17.9647L157.791 17.5117C158.02 18.4293 158.545 19.1564 159.368 19.693C160.191 20.2297 161.211 20.498 162.428 20.498C163.573 20.498 164.476 20.2585 165.138 19.7781C165.799 19.2992 166.129 18.6471 166.129 17.8234C166.129 17.3545 166.019 16.9708 165.8 16.6736C165.581 16.3764 165.132 16.098 164.449 15.8368C163.768 15.5757 162.739 15.2583 161.365 14.8833C159.877 14.4865 158.705 14.0783 157.851 13.6556C156.997 13.2329 156.389 12.7409 156.024 12.1783C155.66 11.6157 155.478 10.9275 155.478 10.1139C155.478 9.12424 155.749 8.25866 156.291 7.51858C156.833 6.77851 157.589 6.2029 158.563 5.7903C159.537 5.37915 160.667 5.17285 161.958 5.17285C163.249 5.17285 164.384 5.37626 165.394 5.78309C166.404 6.18991 167.218 6.76553 167.837 7.51137C168.457 8.25721 168.824 9.12424 168.938 10.1153L166.096 10.6318C165.96 9.73592 165.524 9.02326 164.785 8.49814C164.046 7.97157 163.103 7.69314 161.958 7.6614C160.865 7.62967 159.977 7.82875 159.296 8.25577C158.615 8.68279 158.273 9.25696 158.273 9.9754C158.273 10.3923 158.4 10.7443 158.656 11.0314C158.911 11.3185 159.385 11.5926 160.077 11.8523C160.768 12.1134 161.777 12.4106 163.098 12.7438C164.586 13.1189 165.76 13.5286 166.619 13.9715C167.477 14.4144 168.089 14.9352 168.454 15.5353C168.818 16.1355 169 16.8727 169 17.7483C169 19.3742 168.401 20.6538 167.205 21.5872C166.008 22.5206 164.358 22.9866 162.255 22.9866V22.9837Z" fill="white"/>
</g>
<g id="Group_2">
<path id="Vector_9" d="M16.6097 22.5129L26.1292 0.00488281H23.3633L13.874 22.5129H16.6097Z" fill="white"/>
<path id="Vector_10" d="M31.0798 0.00195312H27.8342L35.9318 10.5722L36.3841 11.1622L35.9347 11.7537L27.7578 22.5158H31.051L40.0044 11.2069L31.0798 0.00195312Z" fill="white"/>
<path id="Vector_11" d="M3.62023 11.1622L4.07258 10.5722L12.1702 0.00195312H8.92309L0 11.2069L8.95335 22.5158H12.2466L4.0697 11.7537L3.62023 11.1622Z" fill="white"/>
</g>
</g>
<defs>
<clipPath id="clip0_6291_351">
<rect width="169" height="23" fill="white"/>
</clipPath>
</defs>
</svg>
