<svg width="199" height="28" viewBox="0 0 199 28" fill="none" xmlns="http://www.w3.org/2000/svg">
<g id="Layer_1" clip-path="url(#clip0_5014_2476)">
<g id="Group">
<path id="Vector" d="M52.856 26.9327V0.5H63.3172C63.5751 0.5 63.8804 0.508468 64.2366 0.527097C64.5929 0.545725 64.9355 0.584677 65.2663 0.645644C66.6997 0.865803 67.9041 1.35862 68.8795 2.1241C69.8532 2.88958 70.586 3.84981 71.0763 5.00649C71.5665 6.16318 71.8125 7.43841 71.8125 8.83388C71.8125 10.2293 71.5648 11.5232 71.0678 12.6799C70.5707 13.8366 69.8362 14.7934 68.8608 15.5521C67.8871 16.3108 66.6878 16.8003 65.2663 17.0204C64.9355 17.0695 64.5929 17.1068 64.2366 17.1305C63.8804 17.1559 63.5751 17.1678 63.3172 17.1678H56.1282V26.9327H52.856ZM56.1282 14.0652H63.207C63.4394 14.0652 63.7057 14.0533 64.0059 14.0279C64.3062 14.0042 64.5912 13.9602 64.8609 13.8992C65.7074 13.7045 66.3927 13.3455 66.9202 12.8255C67.4478 12.3056 67.8363 11.6943 68.0873 10.9897C68.3384 10.2869 68.4639 9.56718 68.4639 8.83218C68.4639 8.09719 68.3384 7.37913 68.0873 6.67462C67.8363 5.97181 67.4461 5.35875 66.9202 4.83883C66.3927 4.31892 65.7074 3.96158 64.8609 3.76513C64.5912 3.70417 64.3062 3.66183 64.0059 3.63642C63.7057 3.61271 63.4394 3.59917 63.207 3.59917H56.1282V14.0618V14.0652Z" fill="black"/>
<path id="Vector_2" d="M81.4459 27.483C79.4731 27.483 77.7716 27.0359 76.3433 26.1434C74.915 25.2509 73.8158 24.0181 73.0423 22.4448C72.2704 20.8732 71.8837 19.0577 71.8837 17.0017C71.8837 14.9458 72.2755 13.1134 73.0609 11.5401C73.8446 9.9685 74.954 8.74408 76.3891 7.86852C77.8225 6.99296 79.5087 6.55603 81.4459 6.55603C83.3831 6.55603 85.1422 7.00312 86.5756 7.89562C88.009 8.7898 89.1099 10.0193 89.8767 11.5858C90.6417 13.1523 91.0251 14.9576 91.0251 17.0001C91.0251 19.0425 90.6383 20.8884 89.8665 22.4617C89.0946 24.035 87.9903 25.2645 86.5569 26.1519C85.1235 27.0393 83.4187 27.483 81.4459 27.483ZM81.4459 24.3805C83.4934 24.3805 85.0218 23.6946 86.0328 22.3245C87.0438 20.9545 87.5493 19.1796 87.5493 17.0017C87.5493 14.8239 87.0404 12.9948 86.0226 11.6603C85.0048 10.3258 83.4798 9.66028 81.4442 9.66028C80.0583 9.66028 78.9183 9.97189 78.0244 10.5968C77.1287 11.2217 76.4621 12.0837 76.021 13.1845C75.58 14.2853 75.3594 15.5589 75.3594 17.0017C75.3594 19.2287 75.8734 21.0154 76.9031 22.3618C77.9328 23.7081 79.4459 24.3805 81.4442 24.3805H81.4459Z" fill="black"/>
<path id="Vector_3" d="M100.489 27.4644C98.1225 27.4644 96.1836 26.9479 94.6705 25.9131C93.1557 24.8784 92.2278 23.4321 91.8851 21.5726L95.232 21.0408C95.5017 22.1179 96.1209 22.9714 97.0895 23.6014C98.0581 24.2314 99.2591 24.5464 100.692 24.5464C102.041 24.5464 103.105 24.2653 103.883 23.7014C104.662 23.1391 105.05 22.3736 105.05 21.4066C105.05 20.8562 104.921 20.4057 104.664 20.0569C104.406 19.708 103.876 19.3812 103.072 19.0746C102.27 18.7681 101.059 18.3955 99.4406 17.9552C97.6883 17.4895 96.3092 17.0102 95.3032 16.514C94.2973 16.0178 93.5815 15.4403 93.1523 14.7798C92.7231 14.1193 92.5094 13.3115 92.5094 12.3564C92.5094 11.1946 92.8283 10.1785 93.4661 9.30972C94.1039 8.44093 94.9945 7.76521 96.1412 7.28086C97.288 6.79821 98.6196 6.55603 100.139 6.55603C101.659 6.55603 102.996 6.79482 104.185 7.2724C105.374 7.74997 106.333 8.42569 107.062 9.30125C107.792 10.1768 108.224 11.1946 108.358 12.3581L105.011 12.9644C104.852 11.9127 104.338 11.0761 103.468 10.4596C102.597 9.84149 101.488 9.51463 100.139 9.47738C98.852 9.44012 97.807 9.67383 97.0047 10.1751C96.2023 10.6764 95.8003 11.3504 95.8003 12.1938C95.8003 12.6832 95.9495 13.0965 96.2515 13.4335C96.5517 13.7705 97.1098 14.0923 97.9241 14.3971C98.7383 14.7036 99.9257 15.0525 101.481 15.4437C103.234 15.884 104.616 16.365 105.627 16.8849C106.638 17.4048 107.359 18.0162 107.788 18.7207C108.217 19.4252 108.431 20.2906 108.431 21.3186C108.431 23.2272 107.725 24.7293 106.318 25.8251C104.908 26.9208 102.966 27.4678 100.489 27.4678V27.4644Z" fill="black"/>
<path id="Vector_4" d="M108.908 9.806V7.1082H122.202V9.806H108.908ZM122.202 26.9327C121.025 27.1766 119.864 27.2782 118.718 27.2358C117.571 27.1935 116.548 26.9598 115.647 26.5381C114.747 26.1164 114.07 25.4526 113.615 24.5465C113.223 23.7641 113.011 22.9715 112.981 22.1688C112.95 21.3677 112.935 20.4583 112.935 19.4422V1.60083H116.207V19.2966C116.207 20.1044 116.216 20.7953 116.234 21.3711C116.253 21.9469 116.378 22.4415 116.611 22.8581C117.052 23.6422 117.754 24.1011 118.716 24.2349C119.678 24.3704 120.84 24.3331 122.2 24.1248V26.9327H122.202Z" fill="black"/>
<path id="Vector_5" d="M127.907 26.9496V0.516968H131.179V23.8471H143.46V26.9496H127.905H127.907Z" fill="black"/>
<path id="Vector_6" d="M150.853 27.5C149.37 27.5 148.129 27.2274 147.13 26.6837C146.13 26.1401 145.377 25.4204 144.868 24.5262C144.359 23.6337 144.105 22.6531 144.105 21.5896C144.105 20.526 144.302 19.6505 144.694 18.8918C145.085 18.1331 145.647 17.4963 146.376 16.9832C147.106 16.47 147.973 16.0653 148.979 15.7723C149.922 15.5149 150.977 15.293 152.141 15.1017C153.304 14.912 154.488 14.7376 155.689 14.5784C156.89 14.4192 158.018 14.2668 159.072 14.1194L157.894 14.7985C157.918 13.0491 157.564 11.7485 156.827 10.8983C156.091 10.0482 154.817 9.62308 153.002 9.62308C151.801 9.62308 150.75 9.89913 149.849 10.4495C148.948 10.9999 148.314 11.8806 147.945 13.0931L144.838 12.1566C145.316 10.419 146.241 9.05406 147.615 8.06334C148.987 7.07262 150.795 6.57642 153.038 6.57642C154.839 6.57642 156.386 6.89819 157.681 7.54004C158.973 8.18189 159.903 9.15228 160.466 10.4495C160.748 11.0609 160.926 11.7248 160.999 12.4411C161.072 13.1575 161.109 13.906 161.109 14.6901V26.9513H158.203V22.1976L158.883 22.6379C158.135 24.2535 157.087 25.4678 155.74 26.2824C154.392 27.0953 152.761 27.5034 150.85 27.5034L150.853 27.5ZM151.348 24.765C152.526 24.765 153.545 24.5533 154.41 24.1316C155.274 23.7099 155.969 23.1527 156.497 22.4618C157.024 21.7708 157.367 21.0155 157.526 20.1941C157.698 19.5828 157.796 18.9036 157.82 18.1568C157.844 17.4099 157.857 16.8291 157.857 16.4125L158.997 16.9087C157.93 17.0679 156.88 17.2152 155.844 17.349C154.807 17.4845 153.833 17.625 152.921 17.7707C152.008 17.918 151.184 18.0958 150.448 18.3024C149.908 18.4735 149.403 18.697 148.931 18.9731C148.459 19.2491 148.079 19.598 147.791 20.0197C147.503 20.4414 147.359 20.9596 147.359 21.571C147.359 22.1095 147.496 22.6243 147.772 23.1121C148.049 23.6015 148.476 23.9995 149.06 24.306C149.642 24.6125 150.405 24.765 151.348 24.765Z" fill="black"/>
<path id="Vector_7" d="M163.557 26.9496V0.516968H166.848V12.3565H166.48V26.9496H163.557ZM172.695 27.5C170.832 27.5 169.263 27.0377 167.988 26.1147C166.712 25.1901 165.747 23.9402 165.092 22.3602C164.436 20.7818 164.108 19.0002 164.108 17.0188C164.108 15.0373 164.436 13.2405 165.092 11.6672C165.747 10.0956 166.715 8.85254 167.998 7.94142C169.279 7.0303 170.851 6.57474 172.714 6.57474C174.576 6.57474 176.137 7.0303 177.467 7.94142C178.797 8.85254 179.818 10.099 180.529 11.6774C181.239 13.2557 181.596 15.0373 181.596 17.0188C181.596 19.0002 181.239 20.7852 180.529 22.3703C179.818 23.9555 178.797 25.207 177.467 26.1249C176.137 27.0428 174.546 27.5017 172.695 27.5017V27.5ZM172.291 24.5076C173.591 24.5076 174.673 24.1773 175.536 23.5168C176.4 22.8564 177.048 21.9605 177.475 20.8275C177.904 19.6962 178.118 18.4261 178.118 17.0188C178.118 15.6114 177.904 14.3633 177.475 13.2371C177.046 12.1109 176.396 11.2184 175.526 10.5579C174.656 9.89745 173.547 9.56721 172.198 9.56721C170.849 9.56721 169.845 9.88221 168.999 10.5122C168.152 11.1422 167.521 12.0211 167.106 13.1456C166.688 14.2718 166.48 15.5623 166.48 17.0188C166.48 18.4752 166.685 19.7504 167.095 20.8834C167.506 22.0147 168.14 22.9021 168.999 23.5456C169.857 24.1875 170.953 24.5093 172.29 24.5093L172.291 24.5076Z" fill="black"/>
<path id="Vector_8" d="M191.058 27.4814C188.691 27.4814 186.752 26.9648 185.239 25.9301C183.725 24.8953 182.797 23.4491 182.454 21.5896L185.801 21.0578C186.071 22.1349 186.69 22.9884 187.658 23.6184C188.627 24.2484 189.828 24.5634 191.261 24.5634C192.61 24.5634 193.674 24.2823 194.452 23.7183C195.231 23.1561 195.619 22.3906 195.619 21.4236C195.619 20.8732 195.49 20.4227 195.232 20.0738C194.975 19.725 194.445 19.3981 193.641 19.0916C192.839 18.7851 191.628 18.4125 190.009 17.9722C188.257 17.5064 186.878 17.0272 185.872 16.531C184.866 16.0348 184.15 15.4573 183.721 14.7968C183.292 14.1363 183.078 13.3285 183.078 12.3733C183.078 11.2116 183.397 10.1955 184.035 9.32668C184.673 8.4579 185.563 7.78218 186.71 7.29783C187.857 6.81517 189.188 6.573 190.708 6.573C192.228 6.573 193.565 6.81179 194.754 7.28936C195.943 7.76694 196.902 8.44266 197.631 9.31822C198.36 10.1938 198.793 11.2116 198.927 12.375L195.58 12.9813C195.421 11.9296 194.907 11.093 194.037 10.4766C193.166 9.85845 192.057 9.5316 190.708 9.49434C189.421 9.45709 188.376 9.69079 187.574 10.1921C186.771 10.6934 186.369 11.3674 186.369 12.2108C186.369 12.7002 186.518 13.1134 186.82 13.4504C187.121 13.7875 187.679 14.1092 188.493 14.4141C189.307 14.7206 190.495 15.0695 192.05 15.4607C193.802 15.901 195.185 16.3819 196.196 16.9019C197.207 17.4218 197.928 18.0331 198.357 18.7376C198.786 19.4422 199 20.3076 199 21.3355C199 23.2441 198.294 24.7463 196.886 25.842C195.477 26.9377 193.534 27.4847 191.058 27.4847V27.4814Z" fill="black"/>
</g>
<g id="Group_2">
<path id="Vector_9" d="M19.5587 26.9275L30.7681 0.505005H27.5111L16.3374 26.9275H19.5587Z" fill="black"/>
<path id="Vector_10" d="M36.5967 0.501587H32.7748L42.3099 12.9101L42.8426 13.6028L42.3133 14.2971L32.6849 26.9309H36.5627L47.1054 13.6553L36.5967 0.501587Z" fill="black"/>
<path id="Vector_11" d="M4.26288 13.603L4.79553 12.9103L14.3306 0.501831H10.5071L0 13.6555L10.5427 26.9311H14.4205L4.79214 14.2974L4.26288 13.603Z" fill="black"/>
</g>
</g>
<defs>
<clipPath id="clip0_5014_2476">
<rect width="199" height="27" fill="white" transform="translate(0 0.5)"/>
</clipPath>
</defs>
</svg>
